# xmcd
#
# Track frame offsets:
# 150
# 15297
# 34457
# 45782
# 63820
# 83115
# 95975
# 117225
# 133687
# 146810
# 162875
# 174725
# 190560
# 211795
# 221630
# 241722
#
# Disc length: 3520 seconds
#
#
# Revision: 2
# Processed by: cddbd v1.5.2PL0 Copyright (c) Steve Scherf et al.
# Submitted via: FreeRIP 2.96 
#
DISCID=d40dbe10
DTITLE=Various Artist - In The Tradition - A Collection Of Classic Blues Recordings Disc 2
DYEAR=1997
DGENRE=Blues
TTITLE0=First Degree
TTITLE1=The Bourgeois Blues
TTITLE2=Selling Out
TTITLE3=Rainy Day
TTITLE4=I Won't Be Back No More
TTITLE5=I Know It Was The Blood
TTITLE6=I Got A Home
TTITLE7=Worried Blues Ain't Bad
TTITLE8=Stole From Me
TTITLE9=Late One Saturday Evening
TTITLE10=The Florida Storm
TTITLE11=Shakey's Edmonton Blues
TTITLE12=Keep On Loving
TTITLE13=Pig Meat
TTITLE14=One Bourbon, One Scotch, One Beer
TTITLE15=Cold White Sheet
EXTD=YEAR: 1997
EXTT0=Louisiana Red and Lefty Dizz
EXTT1=Peter Seeger and Arlo Guthrie
EXTT2=Sonny Terry
EXTT3=Brownie McGhee
EXTT4=John Lee Hooker
EXTT5=The Lunenberg Travelers
EXTT6=Peg Leg Sam
EXTT7=Johnny Shines
EXTT8=Louisiana Red and Lefty Dizz
EXTT9=Alec Seward
EXTT10=Marie Knight
EXTT11=Walter "Shakey" Horton
EXTT12=Brownie McGhee
EXTT13=Arlo Guthrie
EXTT14=John Lee Hooker
EXTT15=Louisiana Red /
PLAYORDER=
